<?xml version="1.0" encoding="UTF-8"?>
<svg version="1.1" xmlns="http://www.w3.org/2000/svg" width="512" height="512">
<path d="M0 0 C1.31662848 -0.01303874 2.63325697 -0.02607747 3.98978329 -0.03951132 C5.44940467 -0.0287012 6.90902261 -0.01741793 8.36863708 -0.00571251 C9.92032314 -0.01147305 11.47200239 -0.01941372 13.02366734 -0.02934873 C17.2898945 -0.0502549 21.55556369 -0.03988999 25.82179308 -0.02441764 C30.42174627 -0.01312339 35.02160226 -0.03055725 39.62153625 -0.04431725 C48.63369566 -0.06657481 57.64564711 -0.06173726 66.65781474 -0.04725404 C73.98080197 -0.0359717 81.30373082 -0.03442654 88.62672424 -0.03987312 C89.66813901 -0.04063929 90.70955377 -0.04140545 91.78252655 -0.04219484 C93.89800224 -0.04379343 96.01347792 -0.04541449 98.12895358 -0.04705779 C117.9755512 -0.06132267 137.82203343 -0.04491097 157.66861212 -0.01805596 C174.70564113 0.00428347 191.74249982 0.00040355 208.77952576 -0.02264977 C228.55408376 -0.04939471 248.32854057 -0.05994931 268.10311413 -0.04458845 C270.2108987 -0.04299567 272.31868329 -0.04142381 274.4264679 -0.03987312 C275.46359486 -0.03910175 276.50072182 -0.03833037 277.56927687 -0.03753562 C284.88524428 -0.0332147 292.20114762 -0.0405136 299.5171051 -0.05227089 C308.43031746 -0.06627992 317.34330961 -0.0625296 326.25649667 -0.03586717 C330.80602279 -0.02270745 335.35518147 -0.01761315 339.90470505 -0.03411293 C344.06724295 -0.04898114 348.22907186 -0.04087668 352.39154518 -0.01422517 C353.89954293 -0.00862682 355.40760023 -0.01151099 356.91555989 -0.02360411 C358.96139633 -0.03875581 361.00739991 -0.02025974 363.05319214 0 C364.75957682 0.00121764 364.75957682 0.00121764 366.50043392 0.00245988 C370.5205411 0.8350608 372.02027845 2.43737896 374.52659607 5.6292057 C375.15400058 7.69290477 375.15400058 7.69290477 375.15745258 9.75835323 C375.17089122 10.55207248 375.18432986 11.34579173 375.19817573 12.16356307 C375.18750247 13.02446223 375.17682921 13.88536139 375.16583252 14.7723484 C375.17836603 16.15695551 375.17836603 16.15695551 375.19115275 17.56953448 C375.2131067 20.66378298 375.19946799 23.75684739 375.1860199 26.85112953 C375.19447129 29.0685968 375.20511456 31.28605664 375.2177887 33.5035038 C375.24598459 39.52584606 375.24345453 45.54783275 375.23549485 51.57022119 C375.23237431 57.86302294 375.25739093 64.15571055 375.27944946 70.44846535 C375.31267472 81.01124882 375.32851445 91.57394801 375.33103943 102.13677406 C375.3336876 113.01572302 375.34680893 123.89457634 375.37400818 134.77349281 C375.37568156 135.4442532 375.37735493 136.11501359 375.37907902 136.80610005 C375.38753859 140.17116336 375.39620399 143.53622611 375.40497172 146.90128863 C375.47696319 174.81058042 375.51343211 202.71982857 375.52659607 230.6292057 C377.27292231 227.93209054 379.0189266 225.2347671 380.76487732 222.53740883 C381.25443909 221.78131325 381.74400085 221.02521767 382.24839783 220.2462101 C386.3635398 213.88808399 390.4507532 207.51260269 394.52659607 201.1292057 C399.42714216 193.46259409 404.33171584 185.79908233 409.29954529 178.17583656 C412.05551541 173.93734105 414.75954971 169.66941752 417.44065857 165.38311195 C418.13610779 164.27838539 418.83155701 163.17365883 419.54808044 162.0354557 C420.90882092 159.87242162 422.26220179 157.70473261 423.60667419 155.53154945 C429.15007967 146.74747026 435.103395 137.37431379 444.90159607 133.0667057 C445.89933044 132.61166664 446.89706482 132.15662758 447.92503357 131.68779945 C456.94056255 128.01931844 468.89883291 128.10362998 478.02659607 131.5667057 C488.86558816 136.94116438 495.01602409 144.54418378 499.52659607 155.6292057 C502.25006634 163.79961652 501.89797485 176.14030083 498.08909607 183.92998695 C497.31565857 185.26610023 497.31565857 185.26610023 496.52659607 186.6292057 C496.18757263 187.22007973 495.84854919 187.81095375 495.49925232 188.41973305 C488.94390102 199.7343356 481.66794521 210.61661172 474.49925232 221.54717445 C470.3797153 227.83736309 466.3231508 234.16689438 462.27659607 240.5042057 C457.8782272 247.39122879 453.47492135 254.27432631 449.02659607 261.1292057 C444.497054 268.11037539 440.00897019 275.11767077 435.52659607 282.1292057 C430.6228161 289.79992297 425.70454917 297.46043396 420.74925232 305.0979557 C415.94430011 312.51212528 411.19180038 319.95981155 406.43333435 327.40386391 C403.06565598 332.66981192 399.69804207 337.93549982 396.28749943 343.17382908 C395.42381591 344.50925208 394.56732515 345.84938915 393.72198391 347.19649792 C391.31201499 351.01182615 388.78153728 354.62297558 385.98876953 358.16898537 C374.75878784 373.04347592 373.58917418 386.24935401 374.06980968 404.34985471 C374.14927665 407.97469507 374.14274446 411.59945051 374.1451416 415.22501564 C374.16128566 422.05838331 374.24388677 428.88900768 374.35565621 435.72141784 C374.55435923 447.99384655 374.64068326 460.26733445 374.6966868 472.54116052 C374.71901721 476.8391389 374.77209958 481.13530952 374.85136497 485.43260396 C374.90709273 488.71937146 374.93235658 492.00643652 374.96385193 495.29351234 C374.9944722 496.47527046 375.02509247 497.65702858 375.05664062 498.87459755 C375.06158539 499.96034569 375.06653015 501.04609383 375.07162476 502.16474342 C375.08704284 503.10497384 375.10246092 504.04520426 375.11834621 505.01392651 C374.2665853 508.77834063 372.46873925 510.19157747 369.52659607 512.6292057 C366.50043392 513.25595152 366.50043392 513.25595152 363.05319214 513.25841141 C361.73656365 513.27145014 360.41993517 513.28448888 359.06340885 513.29792273 C357.60378747 513.28711261 356.14416953 513.27582933 354.68455505 513.26412392 C353.13286899 513.26988446 351.58118975 513.27782513 350.0295248 513.28776014 C345.76329763 513.30866631 341.49762845 513.2983014 337.23139906 513.28282905 C332.63144587 513.27153479 328.03158988 513.28896866 323.43165588 513.30272865 C314.41949648 513.32498621 305.40754503 513.32014867 296.3953774 513.30566545 C289.07239017 513.2943831 281.74946131 513.29283795 274.4264679 513.29828453 C272.86434575 513.29943378 272.86434575 513.29943378 271.27066559 513.30060624 C269.15518989 513.30220484 267.03971422 513.3038259 264.92423856 513.3054692 C245.07764094 513.31973408 225.23115871 513.30332238 205.38458002 513.27646737 C188.34755101 513.25412793 171.31069232 513.25800785 154.27366638 513.28106117 C134.49910838 513.30780612 114.72465157 513.31836071 94.95007801 513.30299985 C92.84229344 513.30140707 90.73450885 513.29983522 88.62672424 513.29828453 C87.58959728 513.29751315 86.55247032 513.29674178 85.48391527 513.29594702 C78.16794786 513.29162611 70.85204452 513.29892501 63.53608704 513.3106823 C54.62287468 513.32469133 45.70988253 513.320941 36.79669547 513.29427858 C32.24716935 513.28111885 27.69801067 513.27602456 23.14848709 513.29252434 C18.98594919 513.30739255 14.82412028 513.29928809 10.66164696 513.27263658 C9.15364921 513.26703823 7.64559191 513.2699224 6.13763225 513.28201552 C4.09179581 513.29716721 2.04579223 513.27867114 0 513.25841141 C-1.70638468 513.25719377 -1.70638468 513.25719377 -3.44724178 513.25595152 C-7.42979016 512.43112938 -8.94001922 510.73801149 -11.47340393 507.6292057 C-12.10159302 505.08745766 -12.10159302 505.08745766 -12.10450745 502.36748695 C-12.11704056 501.34292397 -12.12957367 500.31836098 -12.14248657 499.26275063 C-12.12922836 498.1668058 -12.11597015 497.07086098 -12.10231018 495.9417057 C-12.10472214 494.80644447 -12.10713409 493.67118324 -12.10961914 492.50152016 C-12.10864081 490.10426778 -12.09525089 487.70699278 -12.07032776 485.30986977 C-12.03602449 481.64209625 -12.04967056 477.9767326 -12.06910706 474.3088932 C-12.06220847 471.97815379 -12.05253599 469.64742059 -12.03981018 467.3167057 C-12.04477005 466.22076088 -12.04972992 465.12481606 -12.05484009 463.99566078 C-11.93753503 456.40637765 -11.93753503 456.40637765 -9.57447815 452.4495182 C-6.14240465 449.47606479 -2.89166407 449.37628205 1.52659607 449.6292057 C4.40159607 450.6292057 4.40159607 450.6292057 6.52659607 452.6292057 C9.52659607 459.6292057 9.52659607 459.6292057 9.52659607 492.6292057 C123.04659607 492.6292057 236.56659607 492.6292057 353.52659607 492.6292057 C353.03159607 450.0592057 353.03159607 450.0592057 352.52659607 406.6292057 C346.58659607 410.9192057 340.64659607 415.2092057 334.52659607 419.6292057 C326.02659607 425.6292057 326.02659607 425.6292057 321.84300232 428.57061195 C316.44220473 432.38213501 311.0970679 436.27123345 305.76487732 440.17803383 C302.32011449 442.68533814 298.84660887 445.14654563 295.29222107 447.4963932 C294.68023865 447.90357582 294.06825623 448.31075844 293.43772888 448.73027992 C290.43055038 450.14474482 287.79565128 449.99874908 284.58128357 449.3870182 C281.86094267 448.38369856 279.98355286 446.94143715 278.32737732 444.5510807 C276.70383431 440.65457749 277.16279419 436.75424957 277.52659607 432.6292057 C277.60651794 431.60955727 277.68643982 430.58990883 277.76878357 429.53936195 C277.99307877 426.89879576 278.24605328 424.26430404 278.52659607 421.6292057 C265.14161656 425.59056912 256.50178203 433.83356864 249.80003357 445.92998695 C248.22340118 448.03377557 246.99402586 448.74346168 244.52659607 449.6292057 C241.40073886 449.84383322 238.54012391 449.48229998 235.52659607 448.6292057 C231.72919712 445.30648162 231.12985387 442.50075615 230.52659607 437.6292057 C230.4693741 435.12202955 230.46460165 432.61335787 230.49925232 430.1057682 C230.51189998 428.65785394 230.52426084 427.20993714 230.53636169 425.7620182 C230.56111019 423.50868024 230.58907716 421.25547853 230.62254333 419.00225258 C230.65302486 416.80758313 230.6706027 414.6130837 230.68675232 412.4182682 C230.7035907 411.11583168 230.72042908 409.81339516 230.73777771 408.47149086 C230.32241751 400.89462806 230.32241751 400.89462806 226.52659607 394.6292057 C213.38380567 394.94976157 199.53858376 409.01111879 190.92893982 417.9417057 C183.71604951 426.01076023 177.71929902 434.53456142 172.41331482 443.9495182 C170.35593172 446.87159855 168.7412113 448.12298662 165.52659607 449.6292057 C161.02592744 450.28384841 159.08913706 449.96256333 155.15159607 447.6292057 C152.59865076 444.71155392 151.36159676 442.82662059 151.17893982 438.9104557 C153.36196178 424.58590712 168.81995379 409.70464138 178.52659607 399.6292057 C179.16854919 398.92408852 179.81050232 398.21897133 180.47190857 397.49248695 C191.50926011 385.7145339 208.52325797 372.82457086 225.15159607 372.2542057 C232.64168088 372.35456007 238.19804879 374.38230204 243.59690857 379.64873695 C250.82831526 388.28709097 252.09391737 397.72399253 253.52659607 408.6292057 C253.98808044 408.30307289 254.44956482 407.97694008 254.92503357 407.64092445 C263.5755863 401.84539605 272.11601376 399.68936147 282.52659607 400.6292057 C283.18659607 400.9592057 283.84659607 401.2892057 284.52659607 401.6292057 C284.67693298 400.73334755 284.67693298 400.73334755 284.83030701 399.81939125 C285.66799507 394.85262287 286.5296733 389.89131154 287.42112732 384.9338932 C288.09948778 381.15355979 288.7126714 377.38052369 289.22581482 373.5745182 C291.08539517 361.12234223 296.39805328 352.56087116 303.60569763 342.39531898 C307.11176567 337.34654536 310.3624523 332.13324022 313.65159607 326.9417057 C315.01771957 324.80170319 316.38488422 322.6623649 317.75315857 320.52373695 C318.40059021 319.51133949 319.04802185 318.49894203 319.71507263 317.45586586 C322.55698136 313.02141583 325.42182572 308.60199823 328.28904724 304.1838932 C333.24421882 296.53914245 338.14439231 288.85906525 343.04612732 281.17998695 C343.69839294 280.15904945 344.35065857 279.13811195 345.02268982 278.08623695 C345.60204285 277.17849525 346.18139587 276.27075356 346.77830505 275.33550453 C348.52659607 272.6292057 348.52659607 272.6292057 350.60342789 270.08885193 C353.18281923 265.44870573 353.08872095 261.79091093 353.045578 256.56856728 C353.05307571 255.56131599 353.06057343 254.55406471 353.06829834 253.51629066 C353.08863009 250.1326598 353.08043258 246.74969633 353.07249451 243.36602211 C353.08129192 240.90225698 353.09183798 238.43849756 353.10399246 235.9747467 C353.12890971 230.04358456 353.13598875 224.11265279 353.13457371 218.18145939 C353.13382182 211.31914396 353.15857875 204.45705199 353.18333435 197.59478188 C353.23610113 179.48130667 353.25422945 161.36774396 353.27659607 143.2542057 C353.35909607 102.7879557 353.44159607 62.3217057 353.52659607 20.6292057 C240.00659607 20.6292057 126.48659607 20.6292057 9.52659607 20.6292057 C9.56140076 45.95799477 9.59620544 71.28678383 9.63206482 97.38311195 C9.64738648 113.39287819 9.66197007 129.40263994 9.67308044 145.41240883 C9.67895418 153.82004247 9.68501566 162.22767594 9.69139099 170.63530922 C9.69218224 171.68908809 9.69297348 172.74286697 9.69378871 173.82857853 C9.70684127 190.84728173 9.73049529 207.86595456 9.75805446 224.88463975 C9.78609613 242.34675328 9.80276971 259.8088509 9.80886155 277.27098602 C9.81298056 288.04848995 9.82599626 298.82590809 9.85034547 309.60338562 C9.86618737 316.9910875 9.87099993 324.37874494 9.8671002 331.76646257 C9.86517625 336.03057472 9.86815265 340.2945368 9.88421249 344.55862236 C9.8988097 348.462844 9.89954966 352.36681463 9.88929275 356.27104782 C9.88802504 357.68301195 9.8918322 359.09499174 9.90124562 360.50692505 C9.99630143 375.64546992 9.99630143 375.64546992 4.83909607 381.5667057 C1.41496823 383.13995363 -1.81946971 383.30344357 -5.47340393 382.6292057 C-8.28343853 380.83556659 -9.98280861 379.61039635 -11.47340393 376.6292057 C-11.57288287 374.62242618 -11.6062504 372.61227146 -11.61041832 370.60303211 C-11.61549286 369.30979375 -11.62056741 368.01655539 -11.62579572 366.68412799 C-11.62639745 365.23533455 -11.62689651 363.78654107 -11.62730408 362.33774757 C-11.6313171 360.80928285 -11.63575505 359.28081919 -11.64058363 357.75235683 C-11.6525727 353.53654547 -11.65820296 349.32074558 -11.66276479 345.10492051 C-11.66871198 340.56425098 -11.68032393 336.02359521 -11.6910553 331.48293495 C-11.71559827 320.50998106 -11.73020855 309.5370226 -11.74311537 298.56404969 C-11.7468257 295.46656012 -11.75079905 292.36907101 -11.75486803 289.27158189 C-11.7801012 270.05000043 -11.80216138 250.82841829 -11.81459618 231.60682392 C-11.81752603 227.15277733 -11.82048767 222.69873076 -11.82350159 218.24468422 C-11.82424764 217.13760869 -11.82499369 216.03053317 -11.82576235 214.8899099 C-11.83842301 196.9455223 -11.87165463 179.00123362 -11.91330342 161.0568923 C-11.95568193 142.64777214 -11.97928642 124.2387027 -11.98451674 105.82953387 C-11.98793533 95.48775935 -11.99974327 85.14613946 -12.03261948 74.80441284 C-12.060565 65.99912464 -12.07164354 57.19402277 -12.06042401 48.38869365 C-12.05522337 43.89384498 -12.05821486 39.39938683 -12.08288956 34.90459442 C-12.10527866 30.79193529 -12.10472359 26.67994954 -12.08568569 22.56727944 C-12.08287106 21.07734515 -12.08856494 19.5873662 -12.10349862 18.0975041 C-12.12252618 16.07605586 -12.10786211 14.05437378 -12.09143639 12.03290272 C-12.09279292 10.90887552 -12.09414944 9.78484833 -12.09554708 8.62675971 C-10.70175523 1.91131753 -6.39967853 0.00456668 0 0 Z M448.98753357 156.45342445 C447.76803819 158.13278541 446.6386638 159.87685655 445.52659607 161.6292057 C449.38889239 165.89198762 454.5119068 168.62713216 459.32420349 171.69146156 C461.09037659 172.81752213 462.85063258 173.95243117 464.61058044 175.08819008 C465.71852966 175.79652992 466.82647888 176.50486977 467.96800232 177.23467445 C468.98579773 177.88589272 470.00359314 178.53711098 471.05223083 179.20806313 C473.34007283 180.79522073 473.34007283 180.79522073 475.52659607 180.6292057 C479.71227091 174.74310046 480.57192327 169.79867203 479.52659607 162.6292057 C477.84677687 157.75144192 474.79266717 154.4732531 470.52659607 151.6292057 C462.56804786 148.9763563 454.54453309 149.86682857 448.98753357 156.45342445 Z M433.52659607 179.6292057 C433.0677301 180.35901649 433.0677301 180.35901649 432.59959412 181.10357094 C426.77148386 190.36713029 420.91599654 199.6104032 414.95506287 208.78911781 C410.78366903 215.21759028 406.65372463 221.67224651 402.52659607 228.1292057 C397.62288281 235.79996536 392.7045489 243.46043436 387.74925232 251.0979557 C383.64885759 257.42497427 379.5875744 263.77683737 375.52659607 270.1292057 C370.6228161 277.79992297 365.70454917 285.46043396 360.74925232 293.0979557 C355.94573652 300.50990887 351.19448023 307.9552579 346.43772888 315.39727211 C342.56996288 321.44560396 338.68613483 327.48280821 334.77659607 333.5042057 C330.77674265 339.67847099 326.79421133 345.86367725 322.83909607 352.0667057 C322.04390564 353.30299721 322.04390564 353.30299721 321.23265076 354.5642643 C320.74828552 355.3269059 320.26392029 356.0895475 319.76487732 356.87529945 C319.33215515 357.55262123 318.89943298 358.22994301 318.45359802 358.92778969 C317.36711702 360.59898586 317.36711702 360.59898586 317.52659607 362.6292057 C319.91421868 364.25933383 322.2996388 365.77082071 324.77659607 367.2542057 C326.241057 368.14853549 327.70458928 369.04438757 329.16722107 369.9417057 C329.9000531 370.39029945 330.63288513 370.8388932 331.38792419 371.3010807 C336.18577715 374.2805693 340.85260843 377.46010045 345.52659607 380.6292057 C349.65382591 376.98982809 352.23595639 372.58060347 355.08909607 367.9417057 C356.16771037 366.21073022 357.247153 364.48027065 358.32737732 362.75029945 C358.86701111 361.88388832 359.4066449 361.01747719 359.96263123 360.12481117 C362.19659737 356.56009029 364.48192199 353.03004153 366.77659607 349.5042057 C371.39181101 342.39948401 375.96383617 335.26771716 380.52659607 328.1292057 C385.43030933 320.45844605 390.34864324 312.79797704 395.30393982 305.1604557 C399.40433455 298.83343714 403.46561774 292.48157404 407.52659607 286.1292057 C412.43037604 278.45848844 417.34864297 270.79797745 422.30393982 263.1604557 C426.4043346 256.83343706 430.46560691 250.4815672 434.52659607 244.1292057 C439.15537556 236.88890236 443.79181338 229.65402187 448.46409607 222.4417057 C448.89569031 221.7738102 449.32728455 221.10591469 449.7719574 220.41777992 C451.89816059 217.12978629 454.0377961 213.85169499 456.19847107 210.58623695 C456.6226532 209.94001381 457.04683533 209.29379066 457.48387146 208.627985 C458.27952539 207.41610885 459.08045724 206.2076744 459.88768005 205.00347328 C461.66075595 202.29163787 462.52659607 200.94375272 462.52659607 197.6292057 C461.01941342 196.29510744 461.01941342 196.29510744 458.97581482 195.1760807 C458.218974 194.72466713 457.46213318 194.27325356 456.68235779 193.80816078 C455.86783142 193.33660561 455.05330505 192.86505043 454.21409607 192.3792057 C452.56388747 191.39952655 450.91414722 190.41905806 449.26487732 189.43779945 C448.45615173 188.9606852 447.64742615 188.48357094 446.81419373 187.99199867 C442.31662044 185.31265459 437.92491604 182.46776903 433.52659607 179.6292057 Z M309.52659607 382.6292057 C308.64521628 386.86332232 307.77261981 391.09912428 306.90818787 395.33672523 C306.61275821 396.77862983 306.31491618 398.2200423 306.01463318 399.66094398 C305.58390726 401.72985227 305.16183304 403.80036402 304.74143982 405.8713932 C304.48483582 407.11775551 304.22823181 408.36411781 303.96385193 409.64824867 C303.24794431 412.54880804 303.24794431 412.54880804 304.52659607 414.6292057 C307.19470826 412.75625637 309.86080708 410.88045985 312.52659607 409.0042057 C313.27038513 408.48213539 314.01417419 407.96006508 314.78050232 407.42217445 C319.76408713 403.91199733 324.67157096 400.31512224 329.52659607 396.6292057 C328.37803638 393.18352664 327.73193117 392.82236764 324.78050232 390.92998695 C324.02575623 390.44336586 323.27101013 389.95674477 322.49339294 389.45537758 C321.69997498 388.95586586 320.90655701 388.45635414 320.08909607 387.9417057 C319.29954529 387.43059242 318.50999451 386.91947914 317.69651794 386.39287758 C313.89432949 383.65322969 313.89432949 383.65322969 309.52659607 382.6292057 Z " fill="#000000" transform="translate(11.473403930664063,-0.6292057037353516)"/>
<path d="M0 0 C1.09499817 -0.00350464 2.18999634 -0.00700928 3.31817627 -0.01062012 C6.93019996 -0.01940784 10.54202712 -0.01359901 14.15405273 -0.00683594 C16.66698748 -0.00818334 19.17992198 -0.0101245 21.69285583 -0.01263428 C26.95590209 -0.01558145 32.21889739 -0.01149188 37.48193359 -0.00195312 C43.56000348 0.00893583 49.63793921 0.00540001 55.71600586 -0.00560594 C61.57329435 -0.01578604 67.43053198 -0.01469534 73.28782463 -0.00884247 C75.77613277 -0.00750792 78.26444434 -0.00914689 80.75274849 -0.01380157 C84.22848731 -0.01887702 87.70396793 -0.01114218 91.1796875 0 C92.2089183 -0.00404846 93.23814911 -0.00809692 94.29856873 -0.01226807 C95.2475705 -0.00662842 96.19657227 -0.00098877 97.17433167 0.00482178 C98.40568014 0.00595285 98.40568014 0.00595285 99.66190434 0.00710678 C103.85977821 0.45417501 106.29897153 1.53593686 109.30674171 4.52994442 C111.26954139 7.64689072 111.52368791 9.2699998 111.5196228 12.92030334 C111.52801178 14.04889267 111.53640076 15.17748199 111.54504395 16.340271 C111.53380493 17.5690094 111.52256592 18.7977478 111.51098633 20.0637207 C111.51478302 21.36500412 111.51857971 22.66628754 111.52249146 24.00700378 C111.53216908 27.56903398 111.51690245 31.13056145 111.49658537 34.69253087 C111.47899332 38.42224745 111.48253985 42.151949 111.48330688 45.88169861 C111.48143507 52.14362989 111.46408639 58.40536707 111.43676758 64.66723633 C111.40530428 71.90580917 111.39477193 79.1441696 111.39623868 86.38280588 C111.39758982 94.0921817 111.38370751 101.8014757 111.36534548 109.51082683 C111.36108413 111.73136821 111.3596633 113.95189638 111.35886765 116.17244148 C111.35648464 120.30948021 111.33705773 124.44626787 111.31567383 128.58325195 C111.3165802 129.81401459 111.31748657 131.04477722 111.31842041 132.31283569 C111.30989044 133.43860519 111.30136047 134.56437469 111.29257202 135.72425842 C111.28922033 136.70223924 111.28586864 137.68022005 111.28241539 138.68783665 C111.01217966 141.38836975 110.48779485 142.98750791 109.02514648 145.25878906 C103.64976258 149.0891129 98.10744606 148.68341452 91.77490234 148.64697266 C90.65064346 148.65222961 89.52638458 148.65748657 88.36805725 148.66290283 C84.65855952 148.67608724 80.9494922 148.66737046 77.23999023 148.65722656 C74.65979429 148.65924759 72.0795989 148.66215927 69.49940491 148.66592407 C64.09508288 148.67034521 58.69092219 148.66420934 53.28662109 148.64990234 C47.04490195 148.6335689 40.80347671 148.63887222 34.56176466 148.65538156 C28.54747335 148.67065049 22.53332549 148.6690162 16.51901436 148.66023636 C13.9637199 148.65823431 11.40841795 148.66069377 8.85313225 148.66767502 C5.28388416 148.67528717 1.715202 148.66368807 -1.85400391 148.64697266 C-3.43992844 148.6560817 -3.43992844 148.6560817 -5.05789185 148.66537476 C-14.13276511 148.58657661 -14.13276511 148.58657661 -17.97485352 145.25878906 C-20.870284 142.07087944 -21.35191832 139.9966698 -21.36253357 135.72425842 C-21.3724382 134.59848892 -21.38234283 133.47271942 -21.39254761 132.31283569 C-21.38579514 130.46669174 -21.38579514 130.46669174 -21.37890625 128.58325195 C-21.3857695 127.28372086 -21.39263275 125.98418976 -21.39970398 124.64527893 C-21.41764916 121.0832387 -21.4164645 117.52144462 -21.41076159 113.95937276 C-21.40767155 110.98468738 -21.41376016 108.0100494 -21.41980034 105.03537077 C-21.43384853 98.01711138 -21.432282 90.9989737 -21.42089844 83.98071289 C-21.40941772 76.74265871 -21.42349115 69.50497508 -21.45029491 62.26696974 C-21.47245378 56.05027535 -21.47908887 49.83369726 -21.4732185 43.61696619 C-21.46984802 39.9050312 -21.4722697 36.19333371 -21.48946953 32.48143196 C-21.50781334 28.34195629 -21.4937498 24.20320127 -21.4765625 20.0637207 C-21.48623047 18.8349823 -21.49589844 17.6062439 -21.50585938 16.340271 C-21.49602524 15.21168167 -21.4861911 14.08309235 -21.47605896 12.92030334 C-21.47584968 11.94194551 -21.47564039 10.96358767 -21.47542477 9.95558262 C-20.82925234 6.47437264 -19.39811568 4.79388079 -16.97485352 2.25878906 C-11.62358663 -0.44666759 -5.8596619 -0.0230943 0 0 Z M0.02514648 21.25878906 C0.02514648 44.35878906 0.02514648 67.45878906 0.02514648 91.25878906 C5.30514648 88.61878906 10.58514648 85.97878906 16.02514648 83.25878906 C15.36514648 81.54691406 14.70514648 79.83503906 14.02514648 78.07128906 C10.45894415 67.24531769 11.02617474 57.50339235 16.02514648 47.25878906 C20.04329418 39.59180873 26.86698713 35.10780023 34.96264648 32.38378906 C44.63192864 29.87306356 53.48525832 31.01028724 62.40795898 35.44238281 C69.51876183 39.69681231 74.47109932 45.78375693 77.19311523 53.62207031 C79.5658138 63.99287955 78.49170769 73.66764647 74.02514648 83.25878906 C75.01256836 83.7525 75.99999023 84.24621094 77.01733398 84.75488281 C83.52124023 88.00683594 83.52124023 88.00683594 90.02514648 91.25878906 C90.02514648 68.15878906 90.02514648 45.05878906 90.02514648 21.25878906 C60.32514648 21.25878906 30.62514648 21.25878906 0.02514648 21.25878906 Z M33.02514648 58.25878906 C31.81871082 61.87809605 31.7024609 64.45109911 32.02514648 68.25878906 C34.08660808 72.08721773 36.16676704 75.16424022 40.02514648 77.25878906 C43.9659369 78.28047547 46.27690934 78.51318969 50.15014648 77.19628906 C54.12101987 74.52026569 57.46213756 71.99060628 58.47436523 67.07910156 C58.73584748 61.72322385 57.70781478 58.32910665 54.02514648 54.25878906 C46.00379048 49.13877459 39.1053115 51.05266756 33.02514648 58.25878906 Z M8.08764648 112.07128906 C4.76212003 116.22020307 1.02514648 121.7671514 1.02514648 127.25878906 C30.06514648 127.25878906 59.10514648 127.25878906 89.02514648 127.25878906 C87.10786684 117.67239086 83.02598297 111.96320225 75.02514648 106.25878906 C65.520779 100.85702625 56.05440569 98.87274287 45.21264648 98.94628906 C44.33680908 98.95192871 43.46097168 98.95756836 42.55859375 98.96337891 C29.72834689 99.20279783 17.14888715 102.39311286 8.08764648 112.07128906 Z " fill="#000000" transform="translate(86.974853515625,45.7412109375)"/>
<path d="M0 0 C0.86416401 -0.00507454 1.72832801 -0.01014909 2.61867881 -0.0153774 C3.57371558 -0.01587516 4.52875236 -0.01637292 5.51272964 -0.01688576 C7.02802431 -0.02345914 7.02802431 -0.02345914 8.57393098 -0.03016531 C11.98096156 -0.04358926 15.38796625 -0.04974023 18.79501724 -0.0558567 C21.22889702 -0.0637548 23.66277563 -0.07202356 26.09665298 -0.08063698 C33.41663129 -0.1046228 40.73661137 -0.11978957 48.05661523 -0.13269705 C50.12369447 -0.13640832 52.19077304 -0.14038161 54.2578516 -0.14444971 C67.09072769 -0.16968575 79.92360482 -0.19174158 92.75650024 -0.20417786 C95.72962574 -0.20710762 98.7027512 -0.21006927 101.67587662 -0.21308327 C102.41484422 -0.21382932 103.15381181 -0.21457537 103.91517237 -0.21534403 C115.88707146 -0.22799872 127.85882206 -0.26122265 139.83065173 -0.3028851 C152.11849987 -0.34529718 164.40627198 -0.36887205 176.69419312 -0.37409842 C183.59480263 -0.37751341 190.49518011 -0.38927849 197.39571762 -0.42220116 C203.88653407 -0.45311803 210.37705668 -0.45862255 216.867939 -0.4468174 C219.25202058 -0.44659598 221.63612052 -0.45495678 224.02013779 -0.47247124 C227.27206617 -0.49506391 230.52251375 -0.48691269 233.77444839 -0.47098732 C235.19361923 -0.49181045 235.19361923 -0.49181045 236.64146018 -0.51305425 C240.99110503 -0.46047656 243.98222019 -0.26485008 247.46775055 2.4875145 C250.79194064 6.11226568 251.02418448 8.61740219 251.05868912 13.35527611 C251.06829666 14.42003166 251.07790421 15.48478722 251.08780289 16.58180809 C251.0941777 18.30683052 251.0941777 18.30683052 251.1006813 20.06670189 C251.10638138 21.2491851 251.11208145 22.43166832 251.11795425 23.64998436 C251.12740595 26.15330167 251.13393891 28.65663142 251.13779068 31.15996361 C251.14749992 34.989774 251.1785241 38.81904865 251.2100563 42.64873314 C251.21658599 45.07971953 251.2218366 47.51070977 251.2256813 49.94170189 C251.23802811 51.08766838 251.25037491 52.23363487 251.26309586 53.41432762 C251.26009476 54.4853875 251.25709366 55.55644737 251.25400162 56.65996361 C251.25764725 57.59911613 251.26129288 58.53826866 251.26504898 59.50588036 C250.71799359 63.42262797 249.05050094 65.88466198 246.40360165 68.75977898 C242.44054587 70.93773668 238.52288083 70.54944369 234.07310867 70.51796532 C233.06458137 70.52264529 232.05605407 70.52732526 231.01696533 70.53214705 C227.62750173 70.54414141 224.23843913 70.53462226 220.84897232 70.52519798 C218.4230259 70.52926173 215.99708133 70.53460249 213.57114029 70.54112816 C207.65971976 70.55340748 201.7484039 70.55158261 195.83698625 70.54289024 C191.03257604 70.53611789 186.22819786 70.53519502 181.42378426 70.53846169 C180.39849128 70.53915123 180.39849128 70.53915123 179.35248531 70.53985471 C177.96394109 70.54081388 176.57539688 70.54178652 175.18685269 70.54277249 C162.16223411 70.55132986 149.13767885 70.54148716 136.11307066 70.52537139 C124.93695277 70.51197088 113.76092836 70.51429339 102.58481216 70.52812767 C89.60867824 70.54418255 76.63259984 70.55050269 63.65645736 70.54129088 C62.27268629 70.54033523 60.88891521 70.53939212 59.50514412 70.53846169 C58.82429239 70.53799886 58.14344067 70.53753603 57.44195708 70.53705918 C52.64373732 70.53446879 47.84555278 70.53884141 43.04733849 70.54590034 C36.58853463 70.5551933 30.12986587 70.54857585 23.67107773 70.53121758 C21.29788062 70.52724441 18.92466868 70.52840089 16.55147743 70.53500557 C13.31711195 70.54317824 10.08331654 70.53295072 6.84898758 70.51796532 C5.43333026 70.52800356 5.43333026 70.52800356 3.98907381 70.53824461 C-0.85691453 70.49456227 -4.18161825 70.3214323 -8.1024437 67.13701439 C-10.29780649 64.02114999 -10.36404893 61.28048448 -10.39297104 57.52983665 C-10.40573074 56.40509438 -10.41849045 55.2803521 -10.43163681 54.12152672 C-10.43386246 52.91105171 -10.4360881 51.70057671 -10.4383812 50.45342064 C-10.44503799 49.20576424 -10.45169479 47.95810783 -10.45855331 46.67264366 C-10.46867916 44.03391307 -10.47423557 41.39559454 -10.47304916 38.75688744 C-10.47284589 35.38292932 -10.50016125 32.00981272 -10.53459358 28.63605404 C-10.56223281 25.40854129 -10.56101223 22.18103567 -10.5633812 18.95342064 C-10.57775223 17.74496986 -10.59212326 16.53651909 -10.60692978 15.29144859 C-10.60077652 14.16355415 -10.59462326 13.03565971 -10.58828354 11.87358665 C-10.59113358 10.88415565 -10.59398361 9.89472466 -10.59692001 8.8753109 C-9.96462935 5.37383016 -8.52843634 3.68963143 -6.1024437 1.13701439 C-3.81487671 -0.0067691 -2.54259609 0.007908 0 0 Z M10.8975563 21.13701439 C10.8975563 30.37701439 10.8975563 39.61701439 10.8975563 49.13701439 C83.1675563 49.13701439 155.4375563 49.13701439 229.8975563 49.13701439 C229.8975563 39.89701439 229.8975563 30.65701439 229.8975563 21.13701439 C157.6275563 21.13701439 85.3575563 21.13701439 10.8975563 21.13701439 Z " fill="#000000" transform="translate(78.10244369506836,219.8629856109619)"/>
<path d="M0 0 C1.1943869 -0.00845947 2.3887738 -0.01691895 3.61935425 -0.02563477 C4.91616119 -0.01956207 6.21296814 -0.01348938 7.54907227 -0.00723267 C8.93922334 -0.0113012 10.32937119 -0.01664466 11.71951294 -0.02316284 C15.48398432 -0.03680891 19.24820831 -0.03154911 23.01268387 -0.02202559 C26.9576813 -0.01441489 30.90265796 -0.02147851 34.84765625 -0.02618408 C41.47179963 -0.03163754 48.09584258 -0.02446082 54.7199707 -0.01016235 C62.37151991 0.00616342 70.02282928 0.00087462 77.67437267 -0.01564157 C84.25119926 -0.02926816 90.82795377 -0.03117038 97.40478992 -0.02332556 C101.32962282 -0.01865548 105.2543431 -0.01800585 109.1791687 -0.02793503 C112.8695889 -0.03661954 116.55970075 -0.03055597 120.25008774 -0.01325226 C122.24558848 -0.00741206 124.24111538 -0.01629029 126.23660278 -0.02563477 C127.43098969 -0.01717529 128.62537659 -0.00871582 129.85595703 0 C130.88979019 0.00113108 131.92362335 0.00226215 132.98878479 0.00342751 C136.51516913 0.45637236 138.89616463 1.54376184 141.92797852 3.38095093 C144.60703581 7.39953687 144.62408545 10.65736814 143.92797852 15.38095093 C142.13404184 18.25124961 140.94534575 19.87226731 137.92797852 21.38095093 C136.0158529 21.48535087 134.10006707 21.52485062 132.18511963 21.53485107 C130.96257477 21.54345154 129.74002991 21.552052 128.48043823 21.56091309 C127.11822552 21.56534846 125.75601236 21.5696468 124.39379883 21.57382202 C122.96483154 21.58172226 121.53586625 21.58999116 120.10690308 21.59860229 C115.40665597 21.6248334 110.70639991 21.64013187 106.00610352 21.65438843 C104.38849634 21.65974783 102.77088922 21.66512533 101.15328217 21.67052078 C94.42435605 21.69215188 87.69543235 21.71088846 80.96648026 21.72214317 C71.32134038 21.73838108 61.67660345 21.771552 52.0316155 21.82854402 C45.25107035 21.86724446 38.47063297 21.88677602 31.68998027 21.89206374 C27.63974814 21.89571735 23.58994567 21.90773881 19.53983307 21.94016647 C15.72790618 21.97024906 11.91666886 21.97655876 8.10464859 21.96478271 C6.70744125 21.96456198 5.3102019 21.97286695 3.91310501 21.99043655 C-7.95023409 22.13147644 -7.95023409 22.13147644 -11.8838501 19.05932617 C-14.64499096 15.67962229 -15.1483693 13.73277654 -15.07202148 9.38095093 C-13.79727018 5.48171165 -12.86242663 3.85609067 -9.33042908 1.73288536 C-5.92399977 0.31953576 -3.66326551 0.00400784 0 0 Z " fill="#000000" transform="translate(86.072021484375,317.6190490722656)"/>
<path d="M0 0 C1.14243668 -0.01029488 1.14243668 -0.01029488 2.30795288 -0.02079773 C4.81690294 -0.03904705 7.32522655 -0.03523099 9.83422852 -0.02954102 C11.58391014 -0.0341038 13.33358998 -0.03940966 15.08326721 -0.04542542 C18.74748014 -0.05435289 22.41147508 -0.05193766 26.07568359 -0.04199219 C30.76438798 -0.03050425 35.45233905 -0.05071285 40.14094448 -0.07990932 C43.75357316 -0.09828232 47.36602169 -0.09797667 50.97868538 -0.0922718 C52.70700194 -0.09211872 54.43533082 -0.09815271 56.16360283 -0.11056328 C58.58350332 -0.12549234 61.002017 -0.11478338 63.421875 -0.09765625 C64.4857972 -0.1121582 64.4857972 -0.1121582 65.57121277 -0.12695312 C70.57840073 -0.0529883 73.39664752 1.30260741 77.27563477 4.40405273 C79.43035444 7.02718973 79.38679561 9.13413339 79.15063477 12.40405273 C78.5650639 16.19262569 77.39082929 18.04405688 74.27563477 20.40405273 C71.2302972 21.92672152 68.05091651 21.57770175 64.70825195 21.59692383 C63.92755844 21.60510132 63.14686493 21.61327881 62.34251404 21.6217041 C59.75252044 21.64656591 57.16258173 21.66307718 54.57250977 21.67749023 C53.24603802 21.68547575 53.24603802 21.68547575 51.89276886 21.69362259 C47.21099209 21.72035918 42.52924202 21.73973135 37.84741211 21.75415039 C33.01398246 21.77078835 28.18123598 21.81555721 23.34806442 21.86652184 C19.62995634 21.90019903 15.9120102 21.91172838 12.19376373 21.91737747 C10.41237423 21.92409 8.63099539 21.93931219 6.84975433 21.96326828 C4.35280452 21.99493046 1.85769401 21.99495554 -0.6394043 21.98754883 C-1.37210037 22.00395416 -2.10479645 22.0203595 -2.85969543 22.03726196 C-6.69062821 21.99086896 -9.18957975 21.41749367 -12.16326904 19.08242798 C-15.35531295 15.74421234 -15.80484052 13.99114379 -15.72436523 9.40405273 C-14.52165992 5.92957073 -13.50640816 4.00736983 -10.58995056 1.75743103 C-7.01046886 0.06688886 -3.87713343 -0.02453726 0 0 Z " fill="#000000" transform="translate(249.724365234375,153.595947265625)"/>
<path d="M0 0 C1.14243668 -0.01029488 1.14243668 -0.01029488 2.30795288 -0.02079773 C4.81690294 -0.03904705 7.32522655 -0.03523099 9.83422852 -0.02954102 C11.58391014 -0.0341038 13.33358998 -0.03940966 15.08326721 -0.04542542 C18.74748014 -0.05435289 22.41147508 -0.05193766 26.07568359 -0.04199219 C30.76438798 -0.03050425 35.45233905 -0.05071285 40.14094448 -0.07990932 C43.75357316 -0.09828232 47.36602169 -0.09797667 50.97868538 -0.0922718 C52.70700194 -0.09211872 54.43533082 -0.09815271 56.16360283 -0.11056328 C58.58350332 -0.12549234 61.002017 -0.11478338 63.421875 -0.09765625 C64.4857972 -0.1121582 64.4857972 -0.1121582 65.57121277 -0.12695312 C70.57840073 -0.0529883 73.39664752 1.30260741 77.27563477 4.40405273 C79.43035444 7.02718973 79.38679561 9.13413339 79.15063477 12.40405273 C78.5650639 16.19262569 77.39082929 18.04405688 74.27563477 20.40405273 C71.2302972 21.92672152 68.05091651 21.57770175 64.70825195 21.59692383 C63.92755844 21.60510132 63.14686493 21.61327881 62.34251404 21.6217041 C59.75252044 21.64656591 57.16258173 21.66307718 54.57250977 21.67749023 C53.24603802 21.68547575 53.24603802 21.68547575 51.89276886 21.69362259 C47.21099209 21.72035918 42.52924202 21.73973135 37.84741211 21.75415039 C33.01398246 21.77078835 28.18123598 21.81555721 23.34806442 21.86652184 C19.62995634 21.90019903 15.9120102 21.91172838 12.19376373 21.91737747 C10.41237423 21.92409 8.63099539 21.93931219 6.84975433 21.96326828 C4.35280452 21.99493046 1.85769401 21.99495554 -0.6394043 21.98754883 C-1.37210037 22.00395416 -2.10479645 22.0203595 -2.85969543 22.03726196 C-6.69062821 21.99086896 -9.18957975 21.41749367 -12.16326904 19.08242798 C-15.35531295 15.74421234 -15.80484052 13.99114379 -15.72436523 9.40405273 C-14.52165992 5.92957073 -13.50640816 4.00736983 -10.58995056 1.75743103 C-7.01046886 0.06688886 -3.87713343 -0.02453726 0 0 Z " fill="#000000" transform="translate(249.724365234375,109.595947265625)"/>
<path d="M0 0 C1.113395 -0.00788544 1.113395 -0.00788544 2.24928284 -0.01593018 C4.68789089 -0.02906782 7.12583914 -0.02041461 9.56445312 -0.01025391 C11.26786422 -0.01227644 12.97127447 -0.01518938 14.67468262 -0.01895142 C18.23877229 -0.02336631 21.80263589 -0.0169707 25.36669922 -0.00292969 C29.92635852 0.01416179 34.48548799 0.00431611 39.04512787 -0.01364708 C42.560811 -0.02450754 46.07636931 -0.02102822 49.59205627 -0.0132637 C51.27291426 -0.01126794 52.95378372 -0.01369897 54.6346283 -0.02070236 C56.98719129 -0.02835428 59.33890613 -0.0166612 61.69140625 0 C62.38041519 -0.00607269 63.06942413 -0.01214539 63.77931213 -0.0184021 C68.34770895 0.04128625 71.4547388 1.01409146 75.34570312 3.38818359 C78.15176999 6.5563236 78.34570312 8.10954554 78.34570312 12.38818359 C78.0541268 15.40113899 77.21651571 16.55124112 75.29490662 18.97665405 C71.62348883 21.97872986 68.88824479 22.09733628 64.34594727 22.03515625 C63.5550621 22.04391785 62.76417694 22.05267944 61.94932556 22.06170654 C59.34260713 22.08366005 56.73759417 22.06916191 54.13085938 22.05224609 C52.31391577 22.05561576 50.49697436 22.06046963 48.68003845 22.06674194 C44.87444572 22.07410804 41.06944038 22.06341773 37.26391602 22.04003906 C32.39341672 22.01157147 27.52429625 22.0279437 22.65384769 22.05790138 C18.90219296 22.07599898 15.15086324 22.07020475 11.39919853 22.05726242 C9.60390496 22.05393414 7.80858159 22.05799512 6.01332283 22.06966019 C3.49970908 22.0824077 0.98830342 22.06293923 -1.52514648 22.03515625 C-2.26248016 22.0452774 -2.99981384 22.05539856 -3.75949097 22.06582642 C-7.59344259 21.98759676 -10.11803096 21.40094681 -13.09596252 19.06259155 C-16.2867492 15.72703642 -16.73472351 13.97250191 -16.65429688 9.38818359 C-15.40052389 5.5531133 -14.44877797 3.88350947 -11.01159668 1.74057007 C-7.22906837 0.21689318 -4.00872712 -0.03533157 0 0 Z " fill="#000000" transform="translate(250.654296875,65.61181640625)"/>
<path d="M0 0 C0.67384232 -0.00525696 1.34768463 -0.01051392 2.04194641 -0.01593018 C4.25875361 -0.02908172 6.47483649 -0.02040893 8.69165039 -0.01025391 C10.23954912 -0.01227629 11.78744693 -0.01518909 13.33534241 -0.01895142 C16.57586763 -0.02336839 19.81614435 -0.016965 23.05664062 -0.00292969 C27.20045518 0.01414773 31.34368613 0.00432656 35.48747921 -0.01364708 C38.68319555 -0.02451423 41.87877473 -0.02102495 45.07449532 -0.0132637 C46.60184359 -0.01126904 48.12920451 -0.01369509 49.65653801 -0.02070236 C51.79609784 -0.0283639 53.93472776 -0.01664787 56.07421875 0 C57.28935654 0.00238678 58.50449432 0.00477356 59.75645447 0.00723267 C63.50776163 0.43441159 65.90218667 1.40673329 69.10180664 3.38818359 C71.78086394 7.40676954 71.79791358 10.66460081 71.10180664 15.38818359 C69.30786996 18.25848228 68.11917388 19.87949998 65.10180664 21.38818359 C62.82628013 21.50603797 60.54725923 21.55806013 58.26879883 21.58105469 C57.56613388 21.58923218 56.86346893 21.59740967 56.13951111 21.60583496 C53.80924329 21.6306887 51.47903647 21.64720635 49.14868164 21.66162109 C47.95460064 21.66960661 47.95460064 21.66960661 46.73639679 21.67775345 C42.52145856 21.70448719 38.30654996 21.7238598 34.09155273 21.73828125 C29.74236112 21.75491412 25.3939295 21.79967893 21.04502487 21.85065269 C17.69750115 21.88434859 14.35015714 21.89586126 11.00247955 21.90150833 C9.39971368 21.90821628 7.79695945 21.92342666 6.19435883 21.94739914 C3.94641204 21.9791016 1.70050519 21.97908104 -0.54760742 21.97167969 C-1.8250885 21.97976654 -3.10256958 21.98785339 -4.41876221 21.9961853 C-9.04929061 21.1870389 -10.63887815 19.73674023 -13.89819336 16.38818359 C-15.1619156 12.29967047 -15.17229406 10.18003006 -13.77319336 6.13818359 C-10.12758099 0.79128545 -6.26081632 0.01230558 0 0 Z " fill="#000000" transform="translate(85.898193359375,359.61181640625)"/>
<path d="M0 0 C3.125 1.875 3.125 1.875 5 5 C5.98876625 10.02622846 5.7769173 13.70513784 3.125 18.125 C-1.29486216 20.7769173 -4.97377154 20.98876625 -10 20 C-13.125 18.125 -13.125 18.125 -15 15 C-15.98876625 9.97377154 -15.7769173 6.29486216 -13.125 1.875 C-8.70513784 -0.7769173 -5.02622846 -0.98876625 0 0 Z " fill="#000000" transform="translate(15,406)"/>
</svg>
