<?xml version="1.0" encoding="UTF-8"?>
<svg version="1.1" xmlns="http://www.w3.org/2000/svg" width="242" height="246">
<path d="M0 0 C79.86 0 159.72 0 242 0 C242 81.18 242 162.36 242 246 C162.14 246 82.28 246 0 246 C0 164.82 0 83.64 0 0 Z " fill="#FCFCFD" transform="translate(0,0)"/>
<path d="M0 0 C0.82549347 -0.00852997 1.65098694 -0.01705994 2.50149536 -0.02584839 C3.39869797 -0.02494202 4.29590057 -0.02403564 5.22029114 -0.02310181 C6.17202209 -0.02981903 7.12375305 -0.03653625 8.10432434 -0.04345703 C11.25346591 -0.06246718 14.40239457 -0.0663632 17.55158997 -0.06851196 C19.74391772 -0.07493935 21.93624461 -0.08166767 24.12857056 -0.08868408 C28.72768643 -0.10066551 33.32672716 -0.10436417 37.92585754 -0.10317993 C43.80583697 -0.10297705 49.68533138 -0.13024334 55.56519604 -0.16472435 C60.09580679 -0.18701794 64.62630146 -0.19101666 69.15696144 -0.18996048 C71.32379638 -0.1923141 73.49063462 -0.20112411 75.65741539 -0.21662521 C78.69694277 -0.2363281 81.7354328 -0.2304292 84.77497864 -0.21841431 C85.66206009 -0.22965332 86.54914154 -0.24089233 87.46310425 -0.25247192 C94.4794411 -0.18236663 100.43537672 1.59586745 105.99934387 5.98617554 C110.49829561 11.87500796 110.54906243 17.03665544 110.19612122 24.26742554 C110.15551575 25.85877319 110.15551575 25.85877319 110.11408997 27.48226929 C110.04389505 30.07948133 109.94563903 32.67234658 109.82112122 35.26742554 C107.88362122 35.82992554 107.88362122 35.82992554 105.82112122 36.26742554 C104.26305519 34.70935951 104.67584133 33.16954817 104.64533997 31.00570679 C104.62149231 30.13365601 104.59764465 29.26160522 104.57307434 28.36312866 C104.53056313 26.52741739 104.49906732 24.69141346 104.47932434 22.85531616 C104.30218152 17.24030056 103.77508166 13.58887972 99.82112122 9.26742554 C95.15749088 6.66461897 90.41810383 6.99215845 85.2290802 7.02450562 C84.26917175 7.02260727 83.30926331 7.02070892 82.32026672 7.01875305 C79.15249929 7.01505329 75.98496197 7.02573794 72.81721497 7.03695679 C70.61433947 7.03814912 68.41146345 7.03860164 66.20858765 7.03834534 C61.59445508 7.03990881 56.98040025 7.04818849 52.36628723 7.06161499 C46.44902933 7.07861451 40.53185676 7.08242894 34.61457729 7.08166981 C30.06702865 7.08194159 25.51949869 7.08742397 20.97195625 7.09467125 C18.78984277 7.09785522 16.60772717 7.09982469 14.4256115 7.10056496 C11.37829345 7.10273081 8.33106625 7.11148021 5.2837677 7.12216187 C4.38028091 7.12170868 3.47679413 7.12125549 2.54592896 7.12078857 C1.29901779 7.12718605 1.29901779 7.12718605 0.0269165 7.13371277 C-0.69296227 7.13538861 -1.41284105 7.13706446 -2.15453434 7.13879108 C-4.29869804 7.2750393 -6.14135408 7.58257578 -8.17887878 8.26742554 C-10.71213808 12.26730864 -11.30927294 16.06665223 -11.35588074 20.7293396 C-11.36871597 21.84770203 -11.38155121 22.96606445 -11.39477539 24.11831665 C-11.40216232 25.32767883 -11.40954926 26.53704102 -11.41716003 27.78305054 C-11.42523178 29.02737854 -11.43330353 30.27170654 -11.44161987 31.55374146 C-11.45546086 34.18994875 -11.46647689 36.82603101 -11.4740448 39.46224976 C-11.48289863 42.15876911 -11.50375802 44.85477211 -11.53556824 47.55111694 C-11.57821828 51.44108642 -11.59441183 55.33037632 -11.60466003 59.22055054 C-11.62216812 60.4218158 -11.63967621 61.62308105 -11.65771484 62.86074829 C-11.64045414 69.53342229 -11.28418994 73.89302633 -7.17887878 79.26742554 C-3.99867887 80.85752549 -0.55817117 80.4034705 2.93440247 80.40805054 C4.59131723 80.42638036 6.24821866 80.44595084 7.90510559 80.46664429 C10.51885952 80.49560147 13.13175706 80.51742519 15.74568176 80.51791382 C18.26769591 80.52125329 20.78773234 80.55583104 23.30940247 80.59555054 C24.08665176 80.58848083 24.86390106 80.58141113 25.66470337 80.5741272 C29.63216613 80.66286466 31.56088797 81.06014391 34.69953918 83.56015015 C36.42303999 85.75944823 37.94561161 87.80940045 39.27815247 90.25570679 C39.66809387 90.96146851 40.05803528 91.66723022 40.45979309 92.39437866 C40.84715637 93.11560913 41.23451965 93.8368396 41.63362122 94.57992554 C42.04032043 95.32049194 42.44701965 96.06105835 42.86604309 96.82406616 C43.8587635 98.63432102 44.84102814 100.45030308 45.82112122 102.26742554 C49.25371527 98.01059157 51.52017899 93.20796607 54.00471497 88.36117554 C55.80886558 85.28829966 57.00714437 83.42974761 59.82112122 81.26742554 C62.64490994 80.88501211 65.09079811 80.73279728 67.91096497 80.76351929 C69.08327415 80.74938744 69.08327415 80.74938744 70.27926636 80.73497009 C72.77265207 80.70633623 75.26508446 80.70324088 77.75862122 80.70492554 C80.24844825 80.70131325 82.73758163 80.6917243 85.2272644 80.66416931 C86.77424393 80.64743515 88.32145148 80.64446289 89.86846924 80.65718079 C94.37316513 80.61335124 97.31026138 80.15758523 100.82112122 77.26742554 C103.49110961 73.75466828 104.21073525 71.11924329 104.33283997 66.74789429 C104.36828918 65.72631226 104.4037384 64.70473022 104.44026184 63.65219116 C104.47409973 62.06954468 104.47409973 62.06954468 104.50862122 60.45492554 C104.54278137 59.38049194 104.57694153 58.30605835 104.61213684 57.19906616 C104.69438765 54.5552902 104.7636133 51.91183633 104.82112122 49.26742554 C106.75862122 48.70492554 106.75862122 48.70492554 108.82112122 48.26742554 C111.39490038 50.84120471 110.05571067 57.99718401 110.07112122 61.45492554 C110.10205872 63.16132202 110.10205872 63.16132202 110.13362122 64.90219116 C110.18295569 75.46593489 110.18295569 75.46593489 106.82112122 80.26742554 C102.05171282 84.93084708 97.97504494 87.19598581 91.25349426 87.34823608 C89.95967834 87.28418579 88.66586243 87.2201355 87.33283997 87.15414429 C72.87807489 86.00454405 72.87807489 86.00454405 59.41731262 89.72982788 C55.71052093 93.64551175 54.13996321 98.11712017 52.82112122 103.26742554 C52.32612122 104.75242554 52.32612122 104.75242554 51.82112122 106.26742554 C52.98765732 106.2607637 54.15419342 106.25410187 55.3560791 106.24723816 C66.34745231 106.18643353 77.3387914 106.14145595 88.33029461 106.11198902 C93.98119807 106.09633053 99.6319658 106.07508866 105.28279114 106.04110718 C110.73574979 106.00852064 116.18857785 105.99057391 121.64162636 105.98279381 C123.72245655 105.97724906 125.80327956 105.9664216 127.88405418 105.95023537 C130.79772282 105.9284707 133.71085121 105.92545824 136.62458801 105.92684937 C137.48558105 105.91606354 138.3465741 105.90527771 139.23365784 105.89416504 C143.90751968 105.91832508 147.05214679 106.18464274 150.82112122 109.26742554 C152.26252747 111.98226929 152.26252747 111.98226929 153.38362122 115.20492554 C153.99463684 116.93935913 153.99463684 116.93935913 154.61799622 118.70883179 C155.01502747 119.88316772 155.41205872 121.05750366 155.82112122 122.26742554 C156.41666809 123.88971069 156.41666809 123.88971069 157.02424622 125.54476929 C160.84982784 136.22676306 160.84982784 136.22676306 159.82112122 141.26742554 C157.15767781 144.3061481 155.40321731 145.96649723 151.39922905 146.72809029 C148.38480513 146.91200865 145.40722626 146.93140716 142.38728333 146.89852905 C140.67163429 146.90926201 140.67163429 146.90926201 138.92132568 146.92021179 C135.14663058 146.93709869 131.37312294 146.91769547 127.59846497 146.89633179 C124.97342836 146.89716042 122.34839181 146.89961957 119.72335815 146.90364075 C114.22480124 146.90815593 108.72658516 146.89232651 103.22810364 146.86434937 C96.87723157 146.83228366 90.5269735 146.83232095 84.17605776 146.84956414 C78.05706755 146.86544339 71.93833789 146.85858976 65.8193531 146.84162712 C63.2194068 146.83644149 60.61944281 146.8369317 58.01949883 146.84317207 C54.38779933 146.84861711 50.75714502 146.82827014 47.12556458 146.8008728 C46.04958008 146.80739868 44.97359558 146.81392456 43.86500549 146.82064819 C42.37839668 146.80156151 42.37839668 146.80156151 40.86175537 146.78208923 C40.00398467 146.77928231 39.14621397 146.77647539 38.26245022 146.77358341 C35.82112122 146.26742554 35.82112122 146.26742554 30.82112122 142.26742554 C27.35612122 133.85242554 27.35612122 133.85242554 23.82112122 125.26742554 C23.49112122 155.95742554 23.16112122 186.64742554 22.82112122 218.26742554 C43.94742213 218.17089978 43.94742213 218.17089978 65.07349491 218.04534817 C72.6282682 217.99546513 80.18298392 217.95000628 87.73786926 217.92098999 C94.35802417 217.89554817 100.97796644 217.85463865 107.59798622 217.80423927 C110.12534026 217.78753714 112.65273419 217.77604377 115.18013573 217.76981163 C118.71655393 217.76020722 122.25237792 217.7321905 125.78865051 217.69979858 C127.36066223 217.70195122 127.36066223 217.70195122 128.96443176 217.70414734 C135.95485119 217.72267623 135.95485119 217.72267623 141.82112122 214.26742554 C143.69805049 210.8413372 144.08237452 207.8865784 144.13996887 204.01815796 C144.15983856 202.99747726 144.17970825 201.97679657 144.20018005 200.92518616 C144.21173126 199.83542984 144.22328247 198.74567352 144.23518372 197.62289429 C144.25454987 196.49797073 144.27391602 195.37304718 144.29386902 194.21403503 C144.35355832 190.62774188 144.40000816 187.04141644 144.44612122 183.45492554 C144.48431074 181.02066689 144.52336304 178.58642162 144.56330872 176.15219116 C144.6592512 170.19072148 144.74432997 164.229171 144.82112122 158.26742554 C146.47112122 157.93742554 148.12112122 157.60742554 149.82112122 157.26742554 C149.89719092 165.00865382 149.94972955 172.74978569 149.98591614 180.49130249 C150.00100179 183.12480267 150.02147287 185.75827774 150.04743958 188.39169312 C150.0838314 192.17715657 150.10085012 195.96228781 150.11408997 199.74789429 C150.12957382 200.92514572 150.14505768 202.10239716 150.16101074 203.31532288 C150.16135063 204.96646843 150.16135063 204.96646843 150.16169739 206.65097046 C150.17169014 208.09991951 150.17169014 208.09991951 150.18188477 209.57814026 C149.59273532 213.96991136 147.62891553 216.54248192 144.38362122 219.45492554 C139.6161395 222.82704675 136.22444754 223.56063169 130.40185547 223.53485107 C129.27707691 223.54164774 129.27707691 223.54164774 128.12957555 223.54858172 C125.6154807 223.5612478 123.10160187 223.55960394 120.58747864 223.55795288 C118.78545859 223.5639368 116.9834411 223.57074203 115.181427 223.57830811 C110.28464213 223.59599024 105.38792713 223.60066445 100.49111342 223.60193968 C96.40320004 223.60383836 92.31530295 223.61119563 88.22739583 223.61828387 C78.58179005 223.63457418 68.9362216 223.63945227 59.29060364 223.63803101 C49.34196475 223.6368297 39.39354285 223.65792793 29.44495887 223.68951833 C20.90300323 223.71567524 12.36111847 223.72639853 3.81912309 223.72512019 C-1.28232204 223.72461034 -6.3835744 223.73030602 -11.48497963 223.75147629 C-16.28425189 223.77084851 -21.08314734 223.77099006 -25.88243294 223.75644302 C-27.64202678 223.7543525 -29.40164414 223.75907035 -31.16119766 223.77116394 C-33.56746071 223.7866287 -35.97242647 223.7773012 -38.37866211 223.76190186 C-39.07147823 223.77218898 -39.76429434 223.78247611 -40.47810489 223.79307497 C-45.84857192 223.71736344 -48.83935253 222.20918964 -53.17887878 219.26742554 C-58.68378507 212.86861248 -57.68917505 205.14308231 -57.56950378 197.14633179 C-57.56203371 195.676608 -57.5563444 194.20687419 -57.55235291 192.73713684 C-57.53715655 188.88836665 -57.4979281 185.04021031 -57.45353699 181.19168091 C-57.41245361 177.2567271 -57.39431416 173.3216731 -57.37419128 169.38656616 C-57.33142663 161.67990758 -57.26324992 153.97375291 -57.17887878 146.26742554 C-58.28360535 146.14625366 -59.38833191 146.02508179 -60.52653503 145.90023804 C-64.17887878 145.26742554 -64.17887878 145.26742554 -66.61637878 143.14242554 C-68.51161427 139.65519224 -68.73986363 137.11280881 -68.17887878 133.26742554 C-67.02729737 129.4526979 -65.53375765 125.813825 -63.99137878 122.14242554 C-63.6040155 121.16660522 -63.21665222 120.19078491 -62.81755066 119.18539429 C-62.23263855 117.76807007 -62.23263855 117.76807007 -61.63591003 116.32211304 C-61.28504333 115.47117065 -60.93417664 114.62022827 -60.57267761 113.74349976 C-58.75038288 110.50620546 -57.10900142 108.59781521 -54.17887878 106.26742554 C-51.07853636 105.55806303 -48.05899585 105.63435639 -44.89054871 105.69979858 C-43.4995697 105.69870338 -43.4995697 105.69870338 -42.08049011 105.69758606 C-39.02284251 105.70106272 -35.9667282 105.73992821 -32.90934753 105.77914429 C-30.7865787 105.78847211 -28.66379908 105.79558837 -26.54101562 105.80058289 C-20.95942866 105.8196549 -15.37849437 105.86875817 -9.79716492 105.92410278 C-4.09962289 105.97529045 1.5980248 105.99809594 7.29573059 106.02328491 C18.47114723 106.07687612 29.64607991 106.16219197 40.82112122 106.26742554 C39.38367138 103.2792932 37.87957363 100.32987809 36.36116028 97.38217163 C35.95660614 96.53903915 35.552052 95.69590668 35.13523865 94.82722473 C32.78777965 90.21809078 32.78777965 90.21809078 28.71347809 87.28477859 C24.9848331 86.44289606 21.24982967 86.19577201 17.43830872 86.52523804 C16.6387677 86.58356812 15.83922668 86.64189819 15.01545715 86.70199585 C14.20882629 86.76483765 13.40219543 86.82767944 12.57112122 86.89242554 C10.13230971 87.00639772 7.69473523 87.09446571 5.25428772 87.16473389 C3.74588448 87.21617878 2.2380895 87.2967345 0.73316956 87.41137695 C-4.4760622 87.70196482 -7.15524713 86.51692706 -11.17887878 83.26742554 C-11.50887878 82.93742554 -11.83887878 82.60742554 -12.17887878 82.26742554 C-14.34391579 82.1335977 -16.51122449 82.03598099 -18.67887878 81.95492554 C-32.13653496 80.9897805 -40.00699723 74.31398207 -48.72428894 64.53353882 C-56.32810852 55.65879166 -62.87870837 46.09401878 -69.17887878 36.26742554 C-67.73966646 32.7586297 -66.04855458 31.14839623 -62.96012878 28.99008179 C-62.10934753 28.39389038 -61.25856628 27.79769897 -60.38200378 27.18344116 C-59.48997253 26.57178101 -58.59794128 25.96012085 -57.67887878 25.32992554 C-56.81778503 24.72213257 -55.95669128 24.1143396 -55.06950378 23.48812866 C-43.57792735 15.51455729 -30.48853958 8.39571777 -16.33122253 7.63851929 C-12.62830053 7.00008446 -10.82479919 4.85034784 -8.17887878 2.26742554 C-5.35629933 0.57133752 -3.27767813 0.0153715 0 0 Z " fill="#102175" transform="translate(75.17887878417969,13.732574462890625)"/>
<path d="M0 0 C0.33 0 0.66 0 1 0 C1 31.02 1 62.04 1 94 C-9.291875 94.0825 -19.58375 94.165 -30.1875 94.25 C-33.43102295 94.28641602 -36.6745459 94.32283203 -40.01635742 94.36035156 C-42.58772113 94.3720342 -45.15909222 94.38222702 -47.73046875 94.390625 C-48.72727409 94.40630524 -48.72727409 94.40630524 -49.74421692 94.42230225 C-51.71234358 94.45170045 -53.68082385 94.45335732 -55.64916992 94.45410156 C-56.7572551 94.46298401 -57.86534027 94.47186646 -59.00700378 94.48101807 C-62.71724271 93.88472865 -64.32601311 92.59123227 -67 90 C-69.3770264 86.4344604 -69.24340923 84.92128639 -69.22705078 80.69262695 C-69.22689972 79.39150467 -69.22674866 78.09038239 -69.22659302 76.74983215 C-69.21637969 75.32931363 -69.2059477 73.90879667 -69.1953125 72.48828125 C-69.19158183 71.03525487 -69.18873511 69.58222597 -69.18673706 68.12919617 C-69.17910481 64.30688518 -69.15945992 60.48472646 -69.1373291 56.66247559 C-69.11686183 52.7613328 -69.10773346 48.86016539 -69.09765625 44.95898438 C-69.07621357 37.30592021 -69.04208264 29.65298145 -69 22 C-67.92338104 21.99120064 -67.92338104 21.99120064 -66.82501221 21.98222351 C-60.0566269 21.92428853 -53.28852369 21.85220724 -46.52046585 21.76428509 C-43.04101127 21.71958205 -39.56167375 21.68032622 -36.08203125 21.65356445 C-32.08042826 21.62254861 -28.07945632 21.56776003 -24.078125 21.51171875 C-22.83009094 21.50532883 -21.58205688 21.4989389 -20.29620361 21.49235535 C-19.13530212 21.47256119 -17.97440063 21.45276703 -16.77832031 21.43237305 C-15.24609833 21.41571846 -15.24609833 21.41571846 -13.68292236 21.39872742 C-10.61029613 20.94208345 -9.24866087 20.10396974 -7 18 C-5.84287343 16.01455106 -5.84287343 16.01455106 -5.078125 13.76953125 C-4.77519531 12.96708984 -4.47226563 12.16464844 -4.16015625 11.33789062 C-3.70962891 10.08782227 -3.70962891 10.08782227 -3.25 8.8125 C-2.93417969 7.96751953 -2.61835937 7.12253906 -2.29296875 6.25195312 C-1.51733914 4.17185553 -0.75355931 2.08817258 0 0 Z " fill="#FCFCFD" transform="translate(92,138)"/>
<path d="M0 0 C39.93 0 79.86 0 121 0 C130.70977918 21.03785489 130.70977918 21.03785489 130 27 C127.51936424 29.48063576 126.79446153 29.25394046 123.37586975 29.26742554 C122.40141403 29.27595551 121.42695831 29.28448547 120.42297363 29.29327393 C119.35019165 29.29236755 118.27740967 29.29146118 117.17211914 29.29052734 C116.04523178 29.29724457 114.91834442 29.30396179 113.75730896 29.31088257 C110.01654706 29.3299462 106.27596375 29.33379091 102.53515625 29.3359375 C99.94445215 29.34235928 97.3537488 29.34908716 94.76304626 29.35610962 C89.32646698 29.36810313 83.88995904 29.37187369 78.45336914 29.37060547 C72.16620773 29.36940359 65.87938936 29.39051186 59.59231478 29.4220928 C53.54813031 29.45137388 47.50413241 29.45858224 41.45986748 29.45738602 C38.88615962 29.45975266 36.31244947 29.46863543 33.7387867 29.48405075 C30.14465685 29.50356299 26.55141843 29.49793038 22.95727539 29.48583984 C21.88651764 29.49707886 20.81575989 29.50831787 19.71255493 29.51989746 C18.73527939 29.51150848 17.75800385 29.50311951 16.75111389 29.49447632 C15.90105302 29.49556585 15.05099215 29.49665539 14.17517185 29.49777794 C12 29 12 29 10.26924801 27.12072182 C8.86069313 24.76723925 7.91012135 22.48725114 6.9921875 19.90234375 C6.64542969 18.93619141 6.29867187 17.97003906 5.94140625 16.97460938 C5.58949219 15.97236328 5.23757812 14.97011719 4.875 13.9375 C4.33552734 12.42833008 4.33552734 12.42833008 3.78515625 10.88867188 C2.49373122 7.26832867 1.21552554 3.64657663 0 0 Z " fill="#FA6367" transform="translate(100,126)"/>
<path d="M0 0 C-0.32433517 0.70009186 -0.64867035 1.40018372 -0.98283386 2.12149048 C-2.1019331 5.2884636 -2.2599698 7.70414524 -2.2746582 11.05615234 C-2.28419022 12.25444672 -2.29372223 13.45274109 -2.30354309 14.68734741 C-2.30263168 15.97388214 -2.30172028 17.26041687 -2.30078125 18.5859375 C-2.3046725 19.92965832 -2.30900805 21.27337792 -2.31376648 22.61709595 C-2.32121402 25.42966707 -2.32094847 28.24211263 -2.31567383 31.0546875 C-2.30988606 34.64462718 -2.32679991 38.23404977 -2.3500185 41.82390404 C-2.36481012 44.59844934 -2.36562013 47.37287174 -2.36250877 50.14744949 C-2.36326638 52.10990931 -2.37709719 54.07235016 -2.39118958 56.03475952 C-2.35803577 62.44644268 -2.16491305 67.35640195 1 73 C-11.12310721 73.67454692 -17.63274397 72.17816846 -26.8125 64.1875 C-38.0657788 53.66278621 -46.7260131 40.90522293 -55 28 C-53.56078767 24.49120416 -51.86967579 22.88097069 -48.78125 20.72265625 C-47.93046875 20.12646484 -47.0796875 19.53027344 -46.203125 18.91601562 C-45.31109375 18.30435547 -44.4190625 17.69269531 -43.5 17.0625 C-42.63890625 16.45470703 -41.7778125 15.84691406 -40.890625 15.22070312 C-29.11666773 7.05119834 -14.76431087 -1.4997607 0 0 Z " fill="#FC6669" transform="translate(61,22)"/>
<path d="M0 0 C1.22355698 0.00222061 2.44711395 0.00444122 3.70774841 0.00672913 C4.71746201 0.00651009 4.71746201 0.00651009 5.74757385 0.00628662 C7.98229649 0.00698573 10.21693674 0.01477799 12.4516449 0.02259827 C13.99721226 0.02446245 15.54278022 0.02588635 17.08834839 0.02688599 C21.16380941 0.03071112 25.23923502 0.04054135 29.31468201 0.05158997 C33.47035747 0.0618042 37.62603864 0.06638363 41.78172302 0.07142639 C49.94124452 0.08216363 58.10073718 0.09923998 66.26023865 0.12025452 C65.59386808 3.6035892 64.74396984 6.77900797 63.4828949 10.09681702 C63.13420349 11.01462952 62.78551208 11.93244202 62.42625427 12.87806702 C62.06209412 13.82423889 61.69793396 14.77041077 61.32273865 15.74525452 C60.78229919 17.17611389 60.78229919 17.17611389 60.23094177 18.63587952 C58.78618013 22.41407755 57.51320785 25.74080071 55.26023865 29.12025452 C52.51411438 29.48101807 52.51411438 29.48101807 48.97459412 29.46083069 C48.33056641 29.46126877 47.6865387 29.46170685 47.022995 29.4621582 C44.890832 29.46006545 42.75945202 29.43671316 40.62742615 29.41322327 C39.15055267 29.407629 37.67367363 29.4033581 36.1967926 29.40036011 C32.30697802 29.38889787 28.41749874 29.35941924 24.52781677 29.32624817 C20.55976396 29.29557674 16.59165704 29.28186106 12.6235199 29.26673889 C4.83560651 29.23455051 -2.95203047 29.18333797 -10.73976135 29.12025452 C-12.75338365 25.09300992 -11.3165288 19.95598747 -10.01319885 15.80775452 C-9.14332833 13.55079317 -8.21229271 11.33481387 -7.23976135 9.12025452 C-6.91878479 8.35841858 -6.59780823 7.59658264 -6.2671051 6.81166077 C-3.42929276 0.15051966 -3.42929276 0.15051966 0 0 Z " fill="#FA6367" transform="translate(24.739761352539063,125.87974548339844)"/>
<path d="M0 0 C0.33 0.66 0.66 1.32 1 2 C1.74378906 2.14308594 2.48757812 2.28617188 3.25390625 2.43359375 C10.40310367 3.90817928 16.74390359 9.86315302 20.75 15.78125 C26.02074554 25.13682334 27.44339008 34.5050923 25.375 45.0625 C22.51719998 54.54251249 17.24247541 62.4431145 9 68 C6.64121572 68.97074735 4.51013265 69.4770557 2 70 C1.505 70.99 1.505 70.99 1 72 C-2.86642049 67.38524006 -4.1171309 64.52764077 -4.17700195 58.53808594 C-4.18983719 57.41972351 -4.20267242 56.30136108 -4.21589661 55.14910889 C-4.22328354 53.9397467 -4.23067047 52.73038452 -4.23828125 51.484375 C-4.246353 50.240047 -4.25442474 48.99571899 -4.26274109 47.71368408 C-4.27658208 45.07747678 -4.2875981 42.44139453 -4.29516602 39.80517578 C-4.30401985 37.10865642 -4.32487924 34.41265343 -4.35668945 31.71630859 C-4.39933949 27.82633911 -4.41553305 23.93704921 -4.42578125 20.046875 C-4.44328934 18.84560974 -4.46079742 17.64434448 -4.47883606 16.40667725 C-4.46150419 9.7064925 -4.00880529 5.45352258 0 0 Z " fill="#FD6568" transform="translate(67,22)"/>
<path d="M0 0 C0.89251968 -0.00619858 1.78503937 -0.01239716 2.7046051 -0.01878357 C4.58992422 -0.02587909 6.47530603 -0.02271236 8.3605957 -0.01000977 C11.2409235 0.00384381 14.11799409 -0.03020157 16.99804688 -0.06835938 C18.83203204 -0.06931073 20.66602127 -0.06745086 22.5 -0.0625 C23.35847031 -0.07575821 24.21694061 -0.08901642 25.10142517 -0.10267639 C29.46894655 -0.03489385 31.28421075 0.15889533 34.85717773 2.89477539 C37.35598355 6.30218126 37.48662249 8.37033876 37.44140625 12.56640625 C37.45429688 13.76265625 37.4671875 14.95890625 37.48046875 16.19140625 C36.61366723 20.59679749 35.37150174 21.84421069 31.81640625 24.56640625 C28.70530739 25.28083579 25.68110588 25.24444148 22.5 25.1953125 C21.15978539 25.19893044 21.15978539 25.19893044 19.79249573 25.20262146 C17.90890044 25.20164437 16.02527595 25.18828364 14.1418457 25.16333008 C11.25958805 25.12897398 8.38038961 25.1426889 5.49804688 25.16210938 C3.66535154 25.1552119 1.83266411 25.14554041 0 25.1328125 C-0.86049454 25.13777237 -1.72098907 25.14273224 -2.6075592 25.14784241 C-6.44574247 25.07228052 -8.53336553 25.0273204 -11.72436523 22.76538086 C-13.88867923 19.50388242 -13.7657418 16.34521653 -13.68359375 12.56640625 C-13.6990625 11.85484375 -13.71453125 11.14328125 -13.73046875 10.41015625 C-13.70686642 7.2474437 -13.48982905 5.02788548 -11.72436523 2.36743164 C-7.94009477 -0.31504777 -4.53648495 -0.02614819 0 0 Z " fill="#0C1A6F" transform="translate(166.18359375,194.43359375)"/>
<path d="M0 0 C1.60279192 0.00015914 3.20558896 0.00585476 4.80834961 0.01586914 C5.65038437 0.01728409 6.49241913 0.01869904 7.35997009 0.02015686 C10.06024671 0.02577276 12.76044163 0.03832791 15.46069336 0.05102539 C17.28686404 0.05603834 19.11303602 0.06060161 20.93920898 0.06469727 C25.42556878 0.07574735 29.9118672 0.0930226 34.39819336 0.11352539 C34.39819336 4.40352539 34.39819336 8.69352539 34.39819336 13.11352539 C29.00472348 13.13817389 23.61128611 13.1563607 18.21777344 13.16845703 C16.38150461 13.17349771 14.54523982 13.18033016 12.70898438 13.18896484 C10.07542935 13.20104211 7.4419272 13.2067562 4.80834961 13.21118164 C3.56928612 13.21892357 3.56928612 13.21892357 2.30519104 13.2268219 C0.33582968 13.22701744 -1.63342278 13.17556691 -3.60180664 13.11352539 C-4.60180664 12.11352539 -4.60180664 12.11352539 -4.73461914 9.64477539 C-4.73204102 8.64446289 -4.72946289 7.64415039 -4.72680664 6.61352539 C-4.72938477 5.61321289 -4.73196289 4.61290039 -4.73461914 3.58227539 C-4.52321305 -0.34739083 -4.10007096 0.12923019 0 0 Z " fill="#F56267" transform="translate(162.601806640625,200.886474609375)"/>
<path d="M0 0 C0.54011719 0.26683594 1.08023438 0.53367188 1.63671875 0.80859375 C1.05290218 4.04181782 0.12732183 5.70066605 -2.16723633 8.0324707 C-3.04869072 8.93779289 -3.04869072 8.93779289 -3.94795227 9.86140442 C-4.58645615 10.50010971 -5.22496002 11.138815 -5.8828125 11.796875 C-6.53779221 12.45946823 -7.19277191 13.12206146 -7.86759949 13.80473328 C-9.25330965 15.20124057 -10.64300935 16.59379885 -12.03637695 17.98266602 C-14.17140048 20.11671498 -16.28420575 22.27119895 -18.39648438 24.42773438 C-19.74479141 25.7812465 -21.09435905 27.13350428 -22.4453125 28.484375 C-23.39395927 29.45761467 -23.39395927 29.45761467 -24.36177063 30.45051575 C-24.95886337 31.03830307 -25.55595612 31.62609039 -26.17114258 32.23168945 C-26.6921907 32.75479202 -27.21323883 33.27789459 -27.75007629 33.81684875 C-29.36328125 34.80859375 -29.36328125 34.80859375 -31.37211609 34.62882996 C-34.75776157 33.23415459 -37.12273606 30.60255337 -39.67578125 28.05859375 C-40.23845703 27.53265625 -40.80113281 27.00671875 -41.38085938 26.46484375 C-42.9765625 24.88671875 -42.9765625 24.88671875 -45.36328125 21.80859375 C-45.21875 18.91796875 -45.21875 18.91796875 -44.36328125 16.80859375 C-40.28272974 17.31406747 -38.7005583 19.30948257 -36.11328125 22.37109375 C-35.406875 23.19738281 -34.70046875 24.02367188 -33.97265625 24.875 C-33.4415625 25.51308594 -32.91046875 26.15117188 -32.36328125 26.80859375 C-28.99390677 26.22867962 -27.39775698 25.20509696 -25.05078125 22.74609375 C-24.43976563 22.11058594 -23.82875 21.47507812 -23.19921875 20.8203125 C-21.4781314 18.93444019 -19.82389441 17.00819103 -18.17578125 15.05859375 C-15.02197665 11.42455072 -11.66291335 8.05652198 -8.17578125 4.74609375 C-7.66442627 4.24432617 -7.15307129 3.74255859 -6.6262207 3.22558594 C-2.90678834 -0.23542583 -2.90678834 -0.23542583 0 0 Z " fill="#122578" transform="translate(143.36328125,38.19140625)"/>
<path d="M0 0 C0.89726303 -0.00145523 1.79452606 -0.00291046 2.71897888 -0.00440979 C4.61273451 -0.00275204 6.50650377 0.00879538 8.40014648 0.02954102 C11.3018498 0.05852638 14.20172947 0.05014172 17.10351562 0.03710938 C18.94401931 0.043346 20.78451722 0.05173634 22.625 0.0625 C23.49379288 0.05956436 24.36258575 0.05662872 25.25770569 0.05360413 C26.46927589 0.07263039 26.46927589 0.07263039 27.70532227 0.09204102 C28.41495621 0.097444 29.12459015 0.10284698 29.85572815 0.1084137 C32.26744877 0.60301431 33.18237347 1.64745209 34.74609375 3.49609375 C32.81576294 3.47252808 32.81576294 3.47252808 30.84643555 3.44848633 C26.07745611 3.394236 21.30850401 3.35976145 16.53930664 3.33129883 C14.47415584 3.31620104 12.40903715 3.29572101 10.34399414 3.26977539 C7.37768636 3.2334358 4.41180204 3.21637745 1.4453125 3.203125 C0.52022385 3.18764114 -0.40486481 3.17215729 -1.35798645 3.15620422 C-2.21865219 3.15597763 -3.07931793 3.15575104 -3.96606445 3.15551758 C-5.10190727 3.14552483 -5.10190727 3.14552483 -6.26069641 3.1353302 C-8.83402581 3.60109323 -9.70003077 4.42043935 -11.25390625 6.49609375 C-11.83608957 9.91848215 -11.83608957 9.91848215 -11.94140625 13.68359375 C-12.00714844 14.95589844 -12.07289063 16.22820312 -12.140625 17.5390625 C-12.17800781 18.51488281 -12.21539062 19.49070313 -12.25390625 20.49609375 C-12.58390625 20.49609375 -12.91390625 20.49609375 -13.25390625 20.49609375 C-13.36209285 17.91163602 -13.44127862 15.33172023 -13.50390625 12.74609375 C-13.53742188 12.01648438 -13.5709375 11.286875 -13.60546875 10.53515625 C-13.66429872 7.2995081 -13.60238594 5.02919766 -11.80786133 2.28393555 C-7.99011055 -0.38859948 -4.55613832 -0.059051 0 0 Z " fill="#3E4C90" transform="translate(166.25390625,194.50390625)"/>
<path d="M0 0 C-1.875 3.875 -1.875 3.875 -3 5 C-3.23527773 7.34987262 -3.41386417 9.70556039 -3.5625 12.0625 C-3.64628906 13.35285156 -3.73007813 14.64320313 -3.81640625 15.97265625 C-3.87699219 16.97167969 -3.93757812 17.97070312 -4 19 C-4.33 19 -4.66 19 -5 19 C-5.0809313 16.39521117 -5.14045434 13.79293347 -5.1875 11.1875 C-5.22520508 10.08051758 -5.22520508 10.08051758 -5.26367188 8.95117188 C-5.33780469 3.49005469 -5.33780469 3.49005469 -3.61328125 0.98828125 C-2 0 -2 0 0 0 Z " fill="#2A3A85" transform="translate(158,196)"/>
</svg>
